<?xml version="1.0" encoding="utf-8"?>
<!-- Generator: Adobe Illustrator 21.1.0, SVG Export Plug-In . SVG Version: 6.00 Build 0)  -->
<svg version="1.1" id="Layer_1" xmlns="http://www.w3.org/2000/svg" xmlns:xlink="http://www.w3.org/1999/xlink" x="0px" y="0px"
	 viewBox="0 0 75 69.8" style="enable-background:new 0 0 75 69.8;" xml:space="preserve">
<style type="text/css">
	.st0{fill:#3C53A4;}
</style>
<g>
	<g>
		<g>
			<path class="st0" d="M13.4,57.9h-2.7c0-0.6-0.7-1.4-1.9-1.4C8,56.5,7,56.9,7,57.6c0,0.6,0.8,0.8,2.4,1.2c1.8,0.5,4.3,1.1,4.3,3.7
				c0,2.3-1.9,3.7-4.6,3.7c-3.6,0-5.1-2.5-5.1-4.3h2.7c0,0,0.2,1.9,2.5,1.9c1.2,0,1.7-0.5,1.7-1c0-0.7-1-1-2-1.3
				c-1.7-0.4-4.7-1.1-4.7-3.7c0-2.1,2.1-3.7,4.7-3.7C11.9,53.9,13.4,56,13.4,57.9z"/>
		</g>
		<g>
			<path class="st0" d="M25.3,58.7c0,2.3-1.4,4.6-4.4,4.6h-2.5v2.7h-2.8V54.2H21C23.9,54.2,25.3,56.4,25.3,58.7z M18.4,56.8v3.9h2.2
				c1.1,0,1.9-0.7,1.9-2c0-1.3-0.8-1.9-1.9-1.9H18.4z"/>
		</g>
		<g>
			<path class="st0" d="M30.2,65.9h-2.8V54.2h2.8V65.9z"/>
		</g>
		<g>
			<path class="st0" d="M42.4,58.6c0,1.7-0.8,3.1-2,3.8l2.4,3.6h-3.4L37.5,63h-2v2.9h-2.8V54.2h5.5C40.6,54.2,42.4,56,42.4,58.6z
				 M35.5,56.8v3.6h2.4c0.9,0,1.7-0.8,1.7-1.8c0-1-0.8-1.8-1.7-1.8H35.5z"/>
		</g>
		<g>
			<path class="st0" d="M47.4,65.9h-2.8V54.2h2.8V65.9z"/>
		</g>
		<g>
			<path class="st0" d="M60.2,56.8h-4.1v9.1h-2.8v-9.1h-4.1v-2.6h10.9V56.8z"/>
		</g>
		<g>
			<path class="st0" d="M70.7,57.9h-2.7c0-0.6-0.7-1.4-1.9-1.4c-0.8,0-1.8,0.4-1.8,1.1c0,0.6,0.8,0.8,2.4,1.2
				c1.8,0.5,4.3,1.1,4.3,3.7c0,2.3-1.9,3.7-4.6,3.7c-3.6,0-5.1-2.5-5.1-4.3H64c0,0,0.2,1.9,2.5,1.9c1.2,0,1.7-0.5,1.7-1
				c0-0.7-1-1-2-1.3c-1.7-0.4-4.7-1.1-4.7-3.7c0-2.1,2.1-3.7,4.7-3.7C69.1,53.9,70.7,56,70.7,57.9z"/>
		</g>
	</g>
	<g>
		<g>
			<path class="st0" d="M17.8,36.2H8.4v4h7.9v3.9H8.4v5.7H4V32.3h13.7V36.2z"/>
		</g>
		<g>
			<path class="st0" d="M36.2,38.8c0,2.5-1.3,4.7-3.2,5.7l3.7,5.3h-5.4l-2.7-4.4h-3.2v4.4h-4.3V32.3h8.7
				C33.5,32.3,36.2,35,36.2,38.8z M25.5,36.2v5.3h3.7c1.5,0,2.7-1.2,2.7-2.7c0-1.4-1.2-2.7-2.6-2.7H25.5z"/>
		</g>
		<g>
			<path class="st0" d="M53.5,32.3v3.9h-9.4v3H52v3.7h-7.9v3h9.4v3.9H39.8V32.3H53.5z"/>
		</g>
		<g>
			<path class="st0" d="M70.7,32.3v3.9h-9.4v3h7.9v3.7h-7.9v3h9.4v3.9H57V32.3H70.7z"/>
		</g>
	</g>
	<g>
		<g>
			<polygon class="st0" points="4.5,26.5 22.5,16.4 27.9,19.5 45.1,3.6 57.3,18.6 59.5,16.6 71,27.4 60.4,21.7 57.1,24.6 52,17.7 
				47.8,23.5 45.6,17.9 48.2,13.1 45.4,8.5 42.9,14 26.2,21.9 26,28.5 21.2,19.9 17.6,23.9 12.5,26.1 			"/>
		</g>
		<g>
			<g>
				<g>
					<path class="st0" d="M7.7,22.1L7.7,22.1c-0.1,0.1-0.1,0.1-0.2,0.1H7.1L7,21.9l0.2-0.2l0.1-0.1l0.1,0v-0.2l0.1-0.2
						c0,0,0-0.5-0.4-0.5c-0.4,0-0.4,0.4-0.4,0.4l-0.1,0c0,0-0.1,0-0.1,0l-0.1,0.1c0,0-0.1,0-0.1,0l-0.3,0c-0.2,0-0.3,0.1-0.4,0.2
						c-0.2,0.3-0.4,0.8-0.4,1.1c0,0.3,0.2,0.6,0.6,0.5c0,0-0.2,0.4,0,0.7l0,0.9c0,0,0,0,0,0.1l-0.8,0.8c0,0,0,0-0.1,0l-0.1,0
						c0,0-0.1,0.1-0.1,0.1l0,0c0,0.1,0,0.2,0,0.2l0.2,0.2c0,0,0,0,0,0c0,0.1,0.3,0.4,0.6,0.2l-0.2-0.7l0.9-0.9c0,0,0,0,0,0l0-0.1
						c0-0.1,0.1-0.1,0.1,0l0,0c0,0,0,0,0,0.1l-0.1,0.2c0,0,0,0,0,0v1c0,0.1,0.1,0.2,0.2,0.2H7c0,0,0.3,0,0.3-0.2l-0.5-0.2V25
						c0,0,0,0,0,0l0.2-0.5c0,0,0,0,0,0L6.9,24l0-0.5l0-0.3l0.3,0c0,0,0.1,0,0.1-0.1l0.1-0.2c0,0,0-0.1,0-0.1l0,0
						c0-0.1-0.1-0.1-0.2,0l-0.1,0.2l-0.3,0l0.1-0.3l0.4,0c0,0,0,0,0.1,0l0.2-0.2c0,0,0.1,0,0.1,0l0.1,0c0.1,0,0.1,0,0.1-0.1l0,0
						c0,0,0-0.1,0-0.1l-0.1-0.1C7.8,22,7.7,22,7.7,22.1z"/>
				</g>
				<g>
					<path class="st0" d="M5.3,26.5c-0.2,0-0.4-0.2-0.4-0.3c0,0,0,0,0,0l-0.2-0.2c-0.1-0.1-0.1-0.2,0-0.3c0-0.1,0.1-0.1,0.1-0.1
						l0.1,0c0,0,0,0,0.1,0l0.8-0.8c0,0,0,0,0,0l0-0.8c-0.1-0.2,0-0.5,0-0.7c-0.2,0-0.3,0-0.4-0.1c-0.1-0.1-0.1-0.2-0.1-0.4
						c0-0.2,0.2-0.7,0.4-1.1c0.1-0.2,0.2-0.3,0.4-0.2l0.3,0c0,0,0.1,0,0.1,0l0.1-0.1c0,0,0.1,0,0.2,0l0.1,0c0-0.1,0-0.2,0.1-0.3
						c0.1-0.1,0.2-0.1,0.3-0.1c0.4,0,0.4,0.5,0.4,0.5c0,0,0,0,0,0l-0.1,0.2v0.2c0,0,0,0,0,0c0,0,0,0,0,0l-0.1,0l-0.1,0.1l-0.2,0.2
						l0.1,0.2h0.3c0,0,0,0,0.1,0L7.6,22c0.1-0.1,0.2,0,0.2,0L8,22.2c0,0,0,0.1,0,0.2c0,0.1-0.1,0.1-0.2,0.1l-0.1,0c0,0,0,0-0.1,0
						l-0.2,0.2c0,0,0,0-0.1,0l-0.4,0l-0.1,0.2l0.2,0l0.1-0.1c0.1-0.1,0.2-0.1,0.2,0c0,0,0,0.1,0,0.2l-0.1,0.2c0,0.1-0.1,0.1-0.1,0.1
						l-0.3,0l0,0.3l0,0.5L7,24.4c0,0,0,0,0,0.1L6.8,25c0,0,0,0,0,0v0.7l0.5,0.2c0,0,0,0,0,0c0,0.2-0.2,0.2-0.3,0.2H6.5
						c-0.1,0-0.2-0.1-0.2-0.2v-1c0,0,0,0,0,0l0.1-0.2c0,0,0,0,0,0c0,0,0,0,0,0c0,0,0,0,0,0l0,0.1c0,0,0,0.1,0,0.1l-0.9,0.8l0.2,0.7
						c0,0,0,0,0,0C5.4,26.5,5.4,26.5,5.3,26.5z M5.7,23C5.7,23,5.7,23,5.7,23C5.7,23,5.7,23,5.7,23c0,0-0.1,0.4,0,0.7c0,0,0,0,0,0
						l0,0.9c0,0,0,0.1,0,0.1l-0.8,0.8c0,0-0.1,0-0.1,0.1l-0.1,0c0,0-0.1,0-0.1,0.1c0,0.1,0,0.2,0,0.2l0.2,0.2c0,0,0,0,0,0
						c0,0.1,0.2,0.3,0.4,0.3c0,0,0.1,0,0.1,0l-0.2-0.7c0,0,0,0,0,0l0.9-0.9c0,0,0,0,0,0l0-0.1c0-0.1,0-0.1,0.1-0.1
						c0,0,0.1,0,0.1,0.1c0,0,0,0.1,0,0.1l-0.1,0.2c0,0,0,0,0,0v1c0,0.1,0.1,0.2,0.2,0.2H7c0,0,0.2,0,0.2-0.2l-0.5-0.2c0,0,0,0,0,0
						V25c0,0,0,0,0,0l0.2-0.5c0,0,0,0,0,0L6.8,24l0-0.5l0-0.3c0,0,0,0,0,0l0.3,0c0,0,0.1,0,0.1-0.1l0.1-0.2c0,0,0-0.1,0-0.1
						c0,0-0.1,0-0.1,0l-0.1,0.2c0,0,0,0,0,0l-0.3,0c0,0,0,0,0,0c0,0,0,0,0,0l0.1-0.3c0,0,0,0,0,0l0.4,0c0,0,0,0,0,0l0.2-0.2
						c0,0,0.1,0,0.1,0l0.1,0c0,0,0.1,0,0.1,0c0,0,0-0.1,0-0.1l-0.1-0.1c0,0-0.1,0-0.1,0l-0.1,0.1c0,0-0.1,0-0.1,0H7.1c0,0,0,0,0,0
						L7,21.9c0,0,0,0,0,0l0.2-0.2l0.1-0.1c0,0,0,0,0,0l0.1,0v-0.1c0,0,0,0,0,0l0.1-0.2c0-0.1,0-0.4-0.4-0.4c-0.1,0-0.2,0-0.3,0.1
						c-0.1,0.1-0.1,0.3-0.1,0.3c0,0,0,0,0,0c0,0,0,0,0,0l-0.1,0c0,0-0.1,0-0.1,0l-0.1,0.1c0,0-0.1,0-0.1,0l0,0l-0.3,0
						c-0.2,0-0.3,0.1-0.4,0.2c-0.2,0.3-0.4,0.8-0.4,1.1c0,0.2,0,0.3,0.1,0.4C5.4,23,5.5,23.1,5.7,23C5.7,23,5.7,23,5.7,23z"/>
				</g>
			</g>
			<g>
				<g>
					<path class="st0" d="M8.9,25.4C8.9,25.4,8.9,25.4,8.9,25.4l-1.2-3.1c0,0,0,0,0,0c0,0,0,0,0,0L8.9,25.4
						C8.9,25.4,8.9,25.4,8.9,25.4C8.9,25.4,8.9,25.4,8.9,25.4z"/>
				</g>
			</g>
			<g>
				<g>
					<path class="st0" d="M6.5,24.9C6.5,24.9,6.5,24.9,6.5,24.9C6.5,24.9,6.5,24.8,6.5,24.9L7.2,23c0,0,0,0,0,0c0,0,0,0,0,0
						L6.5,24.9C6.6,24.9,6.6,24.9,6.5,24.9z"/>
				</g>
			</g>
		</g>
	</g>
</g>
</svg>
