<?xml version="1.0" encoding="UTF-8"?>
<svg width="92px" height="46px" viewBox="0 0 92 46" version="1.1" xmlns="http://www.w3.org/2000/svg" xmlns:xlink="http://www.w3.org/1999/xlink">
    <!-- Generator: Sketch 48.2 (47327) - http://www.bohemiancoding.com/sketch -->
    <title>Page 1</title>
    <desc>Created with Sketch.</desc>
    <defs>
        <polygon id="path-1" points="0 46 92 46 92 0 0 0"></polygon>
    </defs>
    <g id="MENU" stroke="none" stroke-width="1" fill="none" fill-rule="evenodd" transform="translate(-7.000000, -3.000000)">
        <g id="Page-1" transform="translate(7.000000, 3.000000)">
            <path d="M12.6156515,35.1593359 L8.93023387,35.1593359 C8.93023387,34.386027 8.02620814,33.3416837 6.44333794,33.3416837 C5.33576889,33.3416837 3.97918018,33.8407314 3.97918018,34.7276883 C3.97918018,35.4773354 4.99653003,35.7731072 7.16692527,36.3413476 C9.58597343,36.9769881 13,37.7958278 13,41.2045531 C13,44.1594031 10.4228849,46 6.82768641,46 C2.01232826,46 0,42.726792 0,40.3186717 L3.68505092,40.3186717 C3.68505092,40.3186717 3.97918018,42.77304 7.03122972,42.77304 C8.68158095,42.77304 9.29221091,42.0685653 9.29221091,41.409263 C9.29221091,40.4316028 8.00346997,40.0913756 6.57940023,39.7504313 C4.2729427,39.2044187 0.225914746,38.3411235 0.225914746,34.909095 C0.225914746,32.0911963 2.98420177,30 6.48844754,30 C10.4903659,30 12.6156515,32.75014 12.6156515,35.1593359" id="Fill-1" fill="#3C53A4"></path>
            <path d="M19.7500993,33.5768767 L19.7500993,38.8236058 L22.7046112,38.8236058 C24.2047246,38.8236058 25.2270433,37.9060963 25.2270433,36.164981 C25.2270433,34.4476199 24.2047246,33.5998887 22.7046112,33.5768767 L19.7500993,33.5768767 Z M29,36.164981 C29,39.3176209 27.068544,42.3767282 23.1138336,42.3767282 L19.7500993,42.3767282 L19.7500993,46 L16,46 L16,30 L23.1363224,30 C27.0910328,30 29,33.0587362 29,36.164981 Z" id="Fill-3" fill="#3C53A4"></path>
            <mask id="mask-2" fill="white">
                <use xlink:href="#path-1"></use>
            </mask>
            <g id="Clip-6"></g>
            <polygon id="Fill-5" fill="#3C53A4" mask="url(#mask-2)" points="33 46 37 46 37 30 33 30"></polygon>
            <path d="M43.6135932,33.5768767 L43.6135932,38.4468776 L46.7203541,38.4468776 C47.9545517,38.4468776 48.9456985,37.3411896 48.9456985,35.9994433 C48.9456985,34.6825647 47.9545517,33.5768767 46.7425146,33.5768767 L43.6135932,33.5768767 Z M52.5814523,35.9994433 C52.5814523,38.3058365 51.5238239,40.2588847 49.9153996,41.1771365 L53,46 L48.5053477,46 L46.2574854,42.023012 L43.6135932,42.023012 L43.6135932,46 L40,46 L40,30 L47.249347,30 C50.2899838,30 52.5814523,32.5175837 52.5814523,35.9994433 Z" id="Fill-7" fill="#3C53A4" mask="url(#mask-2)"></path>
            <polygon id="Fill-8" fill="#3C53A4" mask="url(#mask-2)" points="56 46 60 46 60 30 56 30"></polygon>
            <polygon id="Fill-9" fill="#3C53A4" mask="url(#mask-2)" points="77 33.5768767 71.4212331 33.5768767 71.4212331 46 67.5783914 46 67.5783914 33.5768767 62 33.5768767 62 30 77 30"></polygon>
            <path d="M91.6156624,35.1593359 L87.9303487,35.1593359 C87.9303487,34.386027 87.0259817,33.3416837 85.4435229,33.3416837 C84.3359851,33.3416837 82.9794347,33.8407314 82.9794347,34.7276883 C82.9794347,35.4773354 83.9967558,35.7731072 86.1670898,36.3413476 C88.585703,36.9769881 92,37.7958278 92,41.2045531 C92,44.1594031 89.4225908,46 85.8278605,46 C81.0122715,46 79,42.726792 79,40.3186717 L82.684947,40.3186717 C82.684947,40.3186717 82.9794347,42.77304 86.0310314,42.77304 C87.681336,42.77304 88.2919488,42.0685653 88.2919488,41.409263 C88.2919488,40.4316028 87.0036109,40.0913756 85.5792146,39.7504313 C83.2731889,39.2044187 79.2259084,38.3411235 79.2259084,34.909095 C79.2259084,32.0911963 81.9844843,30 85.4886312,30 C89.4904367,30 91.6156624,32.75014 91.6156624,35.1593359" id="Fill-10" fill="#3C53A4" mask="url(#mask-2)"></path>
            <polygon id="Fill-11" fill="#3C53A4" mask="url(#mask-2)" points="19 5.36484693 5.98092811 5.36484693 5.98092811 10.8705684 16.8488782 10.8705684 16.8488782 16.1994474 5.98092811 16.1994474 5.98092811 24 0 24 0 0 19 0"></polygon>
            <path d="M29.8372506,5.36484693 L29.8372506,12.67084 L34.8560605,12.67084 C36.8488178,12.67084 38.4506285,11.0121923 38.4506285,9.00023417 C38.4506285,7.0234947 36.8488178,5.36484693 34.8915004,5.36484693 L29.8372506,5.36484693 Z M44.3236881,9.00023417 C44.3236881,12.4587789 42.6151885,15.3882948 40.0169992,16.7648188 L45,24 L37.7388767,24 L34.1081304,18.0349376 L29.8372506,18.0349376 L29.8372506,24 L24,24 L24,0 L35.7099411,0 C40.6216929,0 44.3236881,3.77663643 44.3236881,9.00023417 Z" id="Fill-12" fill="#3C53A4" mask="url(#mask-2)"></path>
            <polygon id="Fill-13" fill="#3C53A4" mask="url(#mask-2)" points="68 0 68 5.36476318 54.9809281 5.36476318 54.9809281 9.49389616 65.8488782 9.49389616 65.8488782 14.5057292 54.9809281 14.5057292 54.9809281 18.6356115 68 18.6356115 68 24 49 24 49 0"></polygon>
            <polygon id="Fill-14" fill="#3C53A4" mask="url(#mask-2)" points="92 0 92 5.36476318 78.9806689 5.36476318 78.9806689 9.49389616 89.8488354 9.49389616 89.8488354 14.5057292 78.9806689 14.5057292 78.9806689 18.6356115 92 18.6356115 92 24 73 24 73 0"></polygon>
        </g>
    </g>
</svg>